<svg width="63" height="64" viewBox="0 0 63 64" fill="none" xmlns="http://www.w3.org/2000/svg">
<path d="M31.5 0.5C14.0988 0.5 0 14.5988 0 32C0 49.4012 14.0988 63.5 31.5 63.5C48.9012 63.5 63 49.4012 63 32C63 14.5988 48.9012 0.5 31.5 0.5ZM31.5 12.6935C37.673 12.6935 42.6774 17.698 42.6774 23.871C42.6774 30.044 37.673 35.0484 31.5 35.0484C25.327 35.0484 20.3226 30.044 20.3226 23.871C20.3226 17.698 25.327 12.6935 31.5 12.6935ZM31.5 56.3871C24.0442 56.3871 17.3631 53.0085 12.8921 47.7246C15.28 43.2282 19.9542 40.129 25.4032 40.129C25.7081 40.129 26.0129 40.1798 26.305 40.2687C27.9563 40.8022 29.6837 41.1452 31.5 41.1452C33.3163 41.1452 35.0564 40.8022 36.695 40.2687C36.9871 40.1798 37.2919 40.129 37.5968 40.129C43.0458 40.129 47.72 43.2282 50.1079 47.7246C45.6369 53.0085 38.9558 56.3871 31.5 56.3871Z" fill="url(#paint0_linear_604_1180)"/>
<defs>
<linearGradient id="paint0_linear_604_1180" x1="8.13451" y1="8.48479" x2="48.5908" y2="63.3137" gradientUnits="userSpaceOnUse">
<stop stop-color="#B5B4B4"/>
<stop offset="1" stop-color="#50FAAB"/>
</linearGradient>
</defs>
</svg>
